# MagicaVoxel @ Ephtracy

# group
o 

# material
mtllib untitled.mtl
usemtl palette

# normals
vn -1 0 0
vn 1 0 0
vn 0 0 1
vn 0 0 -1
vn 0 -1 0
vn 0 1 0

# texcoords
vt 0.306641 0.5
vt 0.373047 0.5
vt 0.583984 0.5
vt 0.716797 0.5

# verts
v -0.5 0 0.5
v -0.5 0 -0.5
v -0.5 0.4 0.5
v -0.5 0.4 0.4
v -0.5 0.5 0.4
v -0.5 0.5 0.2
v -0.5 0.5 -0.4
v -0.5 0.5 -0.5
v -0.5 0.6 0.5
v -0.5 0.6 0.4
v -0.5 0.6 0.3
v -0.5 0.6 0.2
v -0.5 0.6 -0.2
v -0.5 0.6 -0.3
v -0.5 0.6 -0.4
v -0.5 0.7 0.5
v -0.5 0.7 0.4
v -0.5 0.7 0.3
v -0.5 0.7 0.2
v -0.5 0.7 0
v -0.5 0.7 -0.1
v -0.5 0.7 -0.2
v -0.5 0.7 -0.3
v -0.5 0.8 0
v -0.5 0.8 -0.1
v -0.5 1 0.5
v -0.5 1 -0.5
v 0.5 0 0.5
v 0.5 0 -0.5
v 0.5 0.4 0.5
v 0.5 0.4 0.2
v 0.5 0.4 0.1
v 0.5 0.4 -0.1
v 0.5 0.4 -0.2
v 0.5 0.4 -0.4
v 0.5 0.5 0.5
v 0.5 0.5 0.4
v 0.5 0.5 0.2
v 0.5 0.5 0.1
v 0.5 0.5 0
v 0.5 0.5 -0.1
v 0.5 0.5 -0.2
v 0.5 0.5 -0.4
v 0.5 0.5 -0.5
v 0.5 0.6 0.5
v 0.5 0.6 0.4
v 0.5 0.6 0.3
v 0.5 0.6 0.2
v 0.5 0.6 0.1
v 0.5 0.6 0
v 0.5 0.6 -0.3
v 0.5 0.6 -0.4
v 0.5 0.7 0.3
v 0.5 0.7 0.2
v 0.5 0.7 -0.3
v 0.5 0.7 -0.4
v 0.5 1 0.5
v 0.5 1 -0.5
v -0.5 0 0.5
v -0.5 0.4 0.5
v -0.5 0.6 0.5
v -0.5 0.7 0.5
v -0.5 1 0.5
v -0.4 0.5 0.5
v -0.4 0.6 0.5
v -0.4 0.7 0.5
v -0.4 0.9 0.5
v -0.4 1 0.5
v -0.3 0.4 0.5
v -0.3 0.5 0.5
v -0.3 0.6 0.5
v -0.3 0.7 0.5
v -0.3 0.9 0.5
v -0.3 1 0.5
v -0.2 0.6 0.5
v -0.2 0.7 0.5
v -0.1 0.5 0.5
v -0.1 0.6 0.5
v -0.1 0.8 0.5
v -0.1 0.9 0.5
v 0 0.6 0.5
v 0 0.7 0.5
v 0 0.8 0.5
v 0 0.9 0.5
v 0.1 0.4 0.5
v 0.1 0.5 0.5
v 0.1 0.6 0.5
v 0.1 0.7 0.5
v 0.1 0.8 0.5
v 0.1 0.9 0.5
v 0.2 0.4 0.5
v 0.2 0.5 0.5
v 0.2 0.6 0.5
v 0.2 0.7 0.5
v 0.2 0.8 0.5
v 0.2 0.9 0.5
v 0.3 0.5 0.5
v 0.3 0.6 0.5
v 0.3 0.7 0.5
v 0.3 0.8 0.5
v 0.4 0.4 0.5
v 0.4 0.5 0.5
v 0.5 0 0.5
v 0.5 0.4 0.5
v 0.5 0.5 0.5
v 0.5 0.6 0.5
v 0.5 1 0.5
v -0.5 0 -0.5
v -0.5 0.5 -0.5
v -0.5 1 -0.5
v -0.4 0.5 -0.5
v -0.4 0.6 -0.5
v -0.3 0.5 -0.5
v -0.3 0.6 -0.5
v -0.2 0.5 -0.5
v -0.2 0.6 -0.5
v -0.1 0.5 -0.5
v -0.1 0.6 -0.5
v -0.1 0.7 -0.5
v -0.1 0.8 -0.5
v 0 0.5 -0.5
v 0 0.6 -0.5
v 0 0.7 -0.5
v 0 0.8 -0.5
v 0.1 0.5 -0.5
v 0.1 0.6 -0.5
v 0.2 0.5 -0.5
v 0.2 0.7 -0.5
v 0.3 0.5 -0.5
v 0.3 0.7 -0.5
v 0.5 0 -0.5
v 0.5 0.5 -0.5
v 0.5 1 -0.5
v -0.5 0 0.5
v 0.5 0 0.5
v -0.5 0 -0.5
v 0.5 0 -0.5
v -0.5 1 0.5
v -0.4 1 0.5
v -0.3 1 0.5
v 0.5 1 0.5
v -0.4 1 0.4
v -0.3 1 0.4
v 0 1 0.3
v 0.1 1 0.3
v 0 1 0.2
v 0.1 1 0.2
v 0.3 1 0.1
v 0.4 1 0.1
v 0.3 1 0
v 0.4 1 0
v -0.3 1 -0.1
v -0.2 1 -0.1
v -0.3 1 -0.2
v -0.2 1 -0.2
v -0.5 1 -0.5
v 0.5 1 -0.5

# faces
f 3/2/1 2/2/1 1/2/1
f 4/2/1 2/2/1 3/2/1
f 5/4/1 4/4/1 3/4/1
f 5/2/1 2/2/1 4/2/1
f 6/2/1 2/2/1 5/2/1
f 7/2/1 2/2/1 6/2/1
f 8/2/1 2/2/1 7/2/1
f 9/4/1 5/4/1 3/4/1
f 9/4/1 6/4/1 5/4/1
f 10/4/1 6/4/1 9/4/1
f 11/4/1 6/4/1 10/4/1
f 12/2/1 7/2/1 6/2/1
f 12/4/1 6/4/1 11/4/1
f 13/2/1 7/2/1 12/2/1
f 14/2/1 7/2/1 13/2/1
f 15/4/1 8/4/1 7/4/1
f 15/2/1 7/2/1 14/2/1
f 16/2/1 10/2/1 9/2/1
f 17/4/1 11/4/1 10/4/1
f 17/2/1 10/2/1 16/2/1
f 18/2/1 12/2/1 11/2/1
f 18/4/1 11/4/1 17/4/1
f 19/4/1 13/4/1 12/4/1
f 19/2/1 12/2/1 18/2/1
f 20/4/1 13/4/1 19/4/1
f 21/4/1 13/4/1 20/4/1
f 22/2/1 14/2/1 13/2/1
f 22/4/1 13/4/1 21/4/1
f 23/4/1 15/4/1 14/4/1
f 23/2/1 14/2/1 22/2/1
f 24/2/1 21/2/1 20/2/1
f 24/4/1 17/4/1 16/4/1
f 24/4/1 18/4/1 17/4/1
f 24/4/1 20/4/1 19/4/1
f 24/4/1 19/4/1 18/4/1
f 25/4/1 23/4/1 22/4/1
f 25/2/1 21/2/1 24/2/1
f 25/4/1 22/4/1 21/4/1
f 26/4/1 24/4/1 16/4/1
f 26/4/1 25/4/1 24/4/1
f 27/4/1 15/4/1 23/4/1
f 27/4/1 25/4/1 26/4/1
f 27/4/1 8/4/1 15/4/1
f 27/4/1 23/4/1 25/4/1
f 28/2/2 29/2/2 30/2/2
f 30/2/2 29/2/2 31/2/2
f 31/2/2 29/2/2 32/2/2
f 32/2/2 29/2/2 33/2/2
f 33/2/2 29/2/2 34/2/2
f 34/2/2 29/2/2 35/2/2
f 30/4/2 31/4/2 36/4/2
f 36/4/2 31/4/2 37/4/2
f 31/2/2 32/2/2 38/2/2
f 37/4/2 31/4/2 38/4/2
f 32/4/2 33/4/2 39/4/2
f 38/2/2 32/2/2 39/2/2
f 39/4/2 33/4/2 40/4/2
f 33/2/2 34/2/2 41/2/2
f 40/4/2 33/4/2 41/4/2
f 34/4/2 35/4/2 42/4/2
f 41/2/2 34/2/2 42/2/2
f 35/2/2 29/2/2 43/2/2
f 42/4/2 35/4/2 43/4/2
f 43/2/2 29/2/2 44/2/2
f 36/2/2 37/2/2 45/2/2
f 37/4/2 38/4/2 46/4/2
f 45/2/2 37/2/2 46/2/2
f 38/4/2 39/4/2 46/4/2
f 46/4/2 39/4/2 47/4/2
f 47/4/2 39/4/2 48/4/2
f 39/2/2 40/2/2 49/2/2
f 48/4/2 39/4/2 49/4/2
f 41/4/2 42/4/2 50/4/2
f 49/2/2 40/2/2 50/2/2
f 40/4/2 41/4/2 50/4/2
f 43/4/2 44/4/2 50/4/2
f 42/4/2 43/4/2 50/4/2
f 50/4/2 44/4/2 51/4/2
f 51/4/2 44/4/2 52/4/2
f 47/2/2 48/2/2 53/2/2
f 46/4/2 47/4/2 53/4/2
f 45/4/2 46/4/2 53/4/2
f 48/4/2 49/4/2 54/4/2
f 53/2/2 48/2/2 54/2/2
f 50/4/2 51/4/2 54/4/2
f 49/4/2 50/4/2 54/4/2
f 51/2/2 52/2/2 55/2/2
f 54/4/2 51/4/2 55/4/2
f 52/4/2 44/4/2 56/4/2
f 55/2/2 52/2/2 56/2/2
f 45/4/2 53/4/2 57/4/2
f 54/4/2 55/4/2 57/4/2
f 55/4/2 56/4/2 57/4/2
f 53/4/2 54/4/2 57/4/2
f 56/4/2 44/4/2 58/4/2
f 57/4/2 56/4/2 58/4/2
f 64/4/3 61/4/3 60/4/3
f 65/2/3 62/2/3 61/2/3
f 65/4/3 61/4/3 64/4/3
f 66/4/3 63/4/3 62/4/3
f 66/2/3 62/2/3 65/2/3
f 67/4/3 63/4/3 66/4/3
f 68/4/3 63/4/3 67/4/3
f 69/2/3 60/2/3 59/2/3
f 69/4/3 64/4/3 60/4/3
f 70/2/3 65/2/3 64/2/3
f 70/4/3 64/4/3 69/4/3
f 71/4/3 66/4/3 65/4/3
f 71/2/3 65/2/3 70/2/3
f 71/4/3 67/4/3 66/4/3
f 72/4/3 67/4/3 71/4/3
f 73/3/3 68/3/3 67/3/3
f 73/4/3 67/4/3 72/4/3
f 74/3/3 68/3/3 73/3/3
f 75/2/3 72/2/3 71/2/3
f 75/4/3 71/4/3 70/4/3
f 76/4/3 74/4/3 73/4/3
f 76/2/3 72/2/3 75/2/3
f 76/4/3 73/4/3 72/4/3
f 77/2/3 70/2/3 69/2/3
f 77/4/3 75/4/3 70/4/3
f 77/4/3 76/4/3 75/4/3
f 78/4/3 76/4/3 77/4/3
f 79/4/3 74/4/3 76/4/3
f 79/4/3 76/4/3 78/4/3
f 80/4/3 74/4/3 79/4/3
f 81/2/3 78/2/3 77/2/3
f 81/4/3 79/4/3 78/4/3
f 82/4/3 79/4/3 81/4/3
f 83/3/3 80/3/3 79/3/3
f 83/4/3 79/4/3 82/4/3
f 84/4/3 74/4/3 80/4/3
f 84/3/3 80/3/3 83/3/3
f 85/2/3 69/2/3 59/2/3
f 85/2/3 77/2/3 69/2/3
f 85/2/3 82/2/3 81/2/3
f 85/2/3 81/2/3 77/2/3
f 86/2/3 82/2/3 85/2/3
f 87/2/3 82/2/3 86/2/3
f 88/4/3 83/4/3 82/4/3
f 88/2/3 82/2/3 87/2/3
f 88/4/3 84/4/3 83/4/3
f 89/4/3 84/4/3 88/4/3
f 90/4/3 74/4/3 84/4/3
f 90/4/3 84/4/3 89/4/3
f 91/4/3 86/4/3 85/4/3
f 91/2/3 85/2/3 59/2/3
f 92/2/3 87/2/3 86/2/3
f 92/4/3 86/4/3 91/4/3
f 93/4/3 89/4/3 88/4/3
f 93/2/3 87/2/3 92/2/3
f 93/4/3 88/4/3 87/4/3
f 94/4/3 89/4/3 93/4/3
f 95/3/3 90/3/3 89/3/3
f 95/4/3 89/4/3 94/4/3
f 96/4/3 74/4/3 90/4/3
f 96/3/3 90/3/3 95/3/3
f 97/2/3 92/2/3 91/2/3
f 97/4/3 94/4/3 93/4/3
f 97/4/3 93/4/3 92/4/3
f 98/4/3 94/4/3 97/4/3
f 99/3/3 95/3/3 94/3/3
f 99/4/3 94/4/3 98/4/3
f 100/4/3 96/4/3 95/4/3
f 100/3/3 95/3/3 99/3/3
f 101/2/3 91/2/3 59/2/3
f 101/2/3 98/2/3 97/2/3
f 101/2/3 97/2/3 91/2/3
f 102/2/3 98/2/3 101/2/3
f 103/2/3 101/2/3 59/2/3
f 104/4/3 102/4/3 101/4/3
f 104/2/3 101/2/3 103/2/3
f 105/2/3 98/2/3 102/2/3
f 105/4/3 102/4/3 104/4/3
f 106/4/3 100/4/3 99/4/3
f 106/2/3 98/2/3 105/2/3
f 106/4/3 99/4/3 98/4/3
f 107/4/3 74/4/3 96/4/3
f 107/4/3 100/4/3 106/4/3
f 107/4/3 96/4/3 100/4/3
f 108/2/4 109/2/4 111/2/4
f 109/4/4 110/4/4 111/4/4
f 111/4/4 110/4/4 112/4/4
f 108/2/4 111/2/4 113/2/4
f 111/2/4 112/2/4 113/2/4
f 112/4/4 110/4/4 114/4/4
f 113/2/4 112/2/4 114/2/4
f 108/2/4 113/2/4 115/2/4
f 113/4/4 114/4/4 115/4/4
f 114/4/4 110/4/4 116/4/4
f 115/4/4 114/4/4 116/4/4
f 108/2/4 115/2/4 117/2/4
f 115/2/4 116/2/4 117/2/4
f 116/4/4 110/4/4 118/4/4
f 117/2/4 116/2/4 118/2/4
f 118/4/4 110/4/4 119/4/4
f 119/4/4 110/4/4 120/4/4
f 108/2/4 117/2/4 121/2/4
f 117/4/4 118/4/4 121/4/4
f 118/4/4 119/4/4 121/4/4
f 121/4/4 119/4/4 122/4/4
f 119/2/4 120/2/4 123/2/4
f 122/4/4 119/4/4 123/4/4
f 120/4/4 110/4/4 124/4/4
f 123/2/4 120/2/4 124/2/4
f 121/2/4 122/2/4 125/2/4
f 108/2/4 121/2/4 125/2/4
f 122/4/4 123/4/4 126/4/4
f 125/2/4 122/2/4 126/2/4
f 123/4/4 124/4/4 126/4/4
f 108/2/4 125/2/4 127/2/4
f 125/4/4 126/4/4 127/4/4
f 126/4/4 124/4/4 128/4/4
f 127/4/4 126/4/4 128/4/4
f 108/2/4 127/2/4 129/2/4
f 127/2/4 128/2/4 129/2/4
f 128/4/4 124/4/4 130/4/4
f 129/2/4 128/2/4 130/2/4
f 108/2/4 129/2/4 131/2/4
f 129/4/4 130/4/4 132/4/4
f 131/2/4 129/2/4 132/2/4
f 130/4/4 124/4/4 133/4/4
f 132/4/4 130/4/4 133/4/4
f 124/4/4 110/4/4 133/4/4
f 136/2/5 135/2/5 134/2/5
f 137/2/5 135/2/5 136/2/5
f 138/4/6 139/4/6 142/4/6
f 139/3/6 140/3/6 142/3/6
f 140/4/6 141/4/6 143/4/6
f 142/3/6 140/3/6 143/3/6
f 142/4/6 143/4/6 144/4/6
f 143/4/6 141/4/6 144/4/6
f 144/4/6 141/4/6 145/4/6
f 142/4/6 144/4/6 146/4/6
f 144/3/6 145/3/6 146/3/6
f 145/4/6 141/4/6 147/4/6
f 146/3/6 145/3/6 147/3/6
f 146/4/6 147/4/6 148/4/6
f 147/4/6 141/4/6 148/4/6
f 148/4/6 141/4/6 149/4/6
f 146/4/6 148/4/6 150/4/6
f 148/3/6 149/3/6 150/3/6
f 149/4/6 141/4/6 151/4/6
f 150/3/6 149/3/6 151/3/6
f 142/4/6 146/4/6 152/4/6
f 146/4/6 150/4/6 152/4/6
f 150/4/6 151/4/6 152/4/6
f 152/4/6 151/4/6 153/4/6
f 142/4/6 152/4/6 154/4/6
f 152/3/6 153/3/6 154/3/6
f 153/4/6 151/4/6 155/4/6
f 154/3/6 153/3/6 155/3/6
f 138/4/6 142/4/6 156/4/6
f 142/4/6 154/4/6 156/4/6
f 154/4/6 155/4/6 156/4/6
f 155/4/6 151/4/6 157/4/6
f 156/4/6 155/4/6 157/4/6
f 151/4/6 141/4/6 157/4/6
